<?xml version="1.0" encoding="utf-8"?>
<!-- Generator: Adobe Illustrator 23.0.3, SVG Export Plug-In . SVG Version: 6.00 Build 0)  -->
<svg version="1.1" id="Capa_1" xmlns="http://www.w3.org/2000/svg" xmlns:xlink="http://www.w3.org/1999/xlink" x="0px" y="0px"
	 width="69.3191px" height="43.0532px" viewBox="0 0 69.3191 43.0532" enable-background="new 0 0 69.3191 43.0532"
	 xml:space="preserve">
<g>
	<g>
		<path d="M53.5917,14.049c-1.7704,0-3.4645,0.3311-5.025,0.9334c-1.2226-2.7169-2.2789-5.5902-2.8064-8.2633
			c-0.8473-4.293-4.6408-7.4088-9.0204-7.4088c-1.11,0-2.0099,0.8999-2.0099,2.0099s0.8999,2.0099,2.0099,2.0099
			c0.4782,0,0.9439,0.0667,1.3875,0.1907c1.3484,0.3768,2.4926,1.2888,3.1599,2.5135c-0.054,0.0686-0.1055,0.1398-0.1511,0.2168
			l-0.6244,1.0512l-3.1591,5.3183H20.474l-0.9594-2.4147h0.3982c1.11,0,2.0099-0.8999,2.0099-2.0099s-0.8999-2.0099-2.0099-2.0099
			h-6.9302c-1.11,0-2.0099,0.8999-2.0099,2.0099s0.8999,2.0099,2.0099,2.0099h2.2064l1.754,4.4144
			c-1.2564-0.3712-2.5853-0.5715-3.9604-0.5715C5.2638,14.049-1.016,20.3287-1.016,28.0474s6.2797,13.9985,13.9985,13.9985
			c7.0363,0,12.8758-5.2186,13.8536-11.9885h3.6912c0.7091,0,1.3658-0.3737,1.728-0.9834l10.5625-17.7821
			c0.6196,1.9175,1.3952,3.8387,2.2312,5.6742c-3.316,2.5623-5.4558,6.5764-5.4558,11.0815c0,7.7187,6.2797,13.9985,13.9985,13.9985
			s13.9985-6.2797,13.9985-13.9985S61.3105,14.049,53.5917,14.049z M12.9825,30.0574h9.7752
			c-0.9326,4.5421-4.9612,7.9686-9.7752,7.9686c-5.5022-0.0001-9.9786-4.4764-9.9786-9.9786s4.4764-9.9786,9.9786-9.9786
			c4.814,0,8.8426,3.4266,9.7752,7.9686h-9.7752c-1.11,0-2.0099,0.8999-2.0099,2.0099S11.8725,30.0574,12.9825,30.0574z
			 M29.3834,26.0375h-2.5473c-0.4664-3.2292-2.0389-6.105-4.3202-8.2302c-0.0209-0.0807-0.0452-0.1611-0.0768-0.2405l-0.368-0.926
			H34.965L29.3834,26.0375z M53.5917,38.0259c-5.5023,0-9.9786-4.4764-9.9786-9.9786c0-2.9148,1.2566-5.5414,3.2562-7.3675
			c2.472,4.7242,4.8864,8.2459,5.0681,8.5093c0.3901,0.5651,1.0176,0.8683,1.6559,0.8683c0.3937,0,0.7915-0.1155,1.14-0.356
			c0.9136-0.6306,1.143-1.8824,0.5124-2.796c-0.0433-0.0627-2.4756-3.6097-4.9112-8.2881c1.0216-0.3539,2.1167-0.5487,3.2571-0.5487
			c5.5022,0,9.9786,4.4764,9.9786,9.9786S59.0939,38.0259,53.5917,38.0259z"/>
	</g>
</g>
</svg>
